<mxfile host="Electron" modified="2025-05-24T00:33:55.371Z" agent="Mozilla/5.0 (Macintosh; Intel Mac OS X 10_15_7) AppleWebKit/537.36 (KHTML, like Gecko) draw.io/22.1.2 Chrome/114.0.5735.289 Electron/25.9.4 Safari/537.36" etag="75Ipn39dTGSNY7MlnjJP" version="22.1.2" type="device">
  <diagram name="Page-1" id="5f0bae14-7c28-e335-631c-24af17079c00">
    <mxGraphModel dx="954" dy="1549" grid="1" gridSize="10" guides="1" tooltips="1" connect="1" arrows="1" fold="1" page="1" pageScale="1" pageWidth="1100" pageHeight="850" background="none" math="0" shadow="0">
      <root>
        <mxCell id="0" />
        <mxCell id="1" parent="0" />
        <mxCell id="n4vaRY5eCSg-2q49SCnd-3" value="User Interface&lt;br style=&quot;font-size: 14px;&quot;&gt;(Swift lang)" style="rounded=0;whiteSpace=wrap;html=1;fillColor=#d5e8d4;strokeColor=#82b366;fontStyle=1;fontSize=14;" parent="1" vertex="1">
          <mxGeometry x="440" y="-455" width="200" height="60" as="geometry" />
        </mxCell>
        <mxCell id="n4vaRY5eCSg-2q49SCnd-19" style="edgeStyle=orthogonalEdgeStyle;rounded=0;orthogonalLoop=1;jettySize=auto;html=1;exitX=0.5;exitY=0;exitDx=0;exitDy=0;startArrow=openThin;startFill=0;endArrow=none;endFill=0;jumpSize=6;fontStyle=1;fontSize=14;" parent="1" source="n4vaRY5eCSg-2q49SCnd-4" target="n4vaRY5eCSg-2q49SCnd-3" edge="1">
          <mxGeometry relative="1" as="geometry" />
        </mxCell>
        <mxCell id="n4vaRY5eCSg-2q49SCnd-31" style="edgeStyle=orthogonalEdgeStyle;rounded=0;orthogonalLoop=1;jettySize=auto;html=1;exitX=1;exitY=0.5;exitDx=0;exitDy=0;entryX=0.5;entryY=0;entryDx=0;entryDy=0;fontStyle=1;fontSize=14;" parent="1" source="n4vaRY5eCSg-2q49SCnd-4" target="n4vaRY5eCSg-2q49SCnd-30" edge="1">
          <mxGeometry relative="1" as="geometry" />
        </mxCell>
        <mxCell id="L_NuJ4gCWTDtWlx-L7YN-1" style="edgeStyle=orthogonalEdgeStyle;rounded=0;orthogonalLoop=1;jettySize=auto;html=1;exitX=1;exitY=0.5;exitDx=0;exitDy=0;" edge="1" parent="1" source="n4vaRY5eCSg-2q49SCnd-4" target="n4vaRY5eCSg-2q49SCnd-27">
          <mxGeometry relative="1" as="geometry" />
        </mxCell>
        <mxCell id="n4vaRY5eCSg-2q49SCnd-4" value="RAG Backend&lt;br style=&quot;font-size: 14px;&quot;&gt;(lib-tldr)" style="rounded=0;whiteSpace=wrap;html=1;fillColor=#A0522D;fontColor=#FFFFFF;fontStyle=1;fontSize=14;" parent="1" vertex="1">
          <mxGeometry x="440" y="-330" width="200" height="60" as="geometry" />
        </mxCell>
        <mxCell id="n4vaRY5eCSg-2q49SCnd-15" value="" style="group;fontStyle=1;fontSize=14;fillColor=#ffe6cc;strokeColor=#d79b00;fillStyle=solid;container=0;" parent="1" vertex="1" connectable="0">
          <mxGeometry x="220" y="-181" width="190" height="60" as="geometry" />
        </mxCell>
        <mxCell id="n4vaRY5eCSg-2q49SCnd-32" style="edgeStyle=orthogonalEdgeStyle;rounded=0;orthogonalLoop=1;jettySize=auto;html=1;exitX=0.5;exitY=1;exitDx=0;exitDy=0;entryX=0.5;entryY=1;entryDx=0;entryDy=0;fontStyle=1;fontSize=14;" parent="1" source="n4vaRY5eCSg-2q49SCnd-17" target="n4vaRY5eCSg-2q49SCnd-30" edge="1">
          <mxGeometry relative="1" as="geometry" />
        </mxCell>
        <mxCell id="n4vaRY5eCSg-2q49SCnd-17" value="&lt;div style=&quot;font-size: 14px;&quot;&gt;&lt;br style=&quot;font-size: 14px;&quot;&gt;&lt;/div&gt;&lt;div style=&quot;font-size: 14px;&quot;&gt;NPU accelerated&amp;nbsp;&lt;/div&gt;&lt;div style=&quot;font-size: 14px;&quot;&gt;Cosine Similarity&amp;nbsp;&lt;/div&gt;&lt;div style=&quot;font-size: 14px;&quot;&gt;(lib-npu_accelerator)&lt;/div&gt;&lt;div style=&quot;font-size: 14px;&quot;&gt;&lt;br style=&quot;font-size: 14px;&quot;&gt;&lt;/div&gt;" style="rounded=0;whiteSpace=wrap;html=1;container=0;fontStyle=1;fontSize=14;fillColor=#F8CECC;" parent="1" vertex="1">
          <mxGeometry x="445" y="-180" width="190" height="60" as="geometry" />
        </mxCell>
        <mxCell id="n4vaRY5eCSg-2q49SCnd-18" value="" style="endArrow=none;html=1;endSize=12;startArrow=diamondThin;startSize=14;startFill=1;edgeStyle=orthogonalEdgeStyle;align=left;verticalAlign=bottom;rounded=0;exitX=0.5;exitY=1;exitDx=0;exitDy=0;entryX=0.5;entryY=0;entryDx=0;entryDy=0;endFill=0;fontStyle=1;fontSize=14;" parent="1" source="n4vaRY5eCSg-2q49SCnd-4" target="n4vaRY5eCSg-2q49SCnd-17" edge="1">
          <mxGeometry x="-1" y="3" relative="1" as="geometry">
            <mxPoint x="660" y="-50" as="sourcePoint" />
            <mxPoint x="820" y="-50" as="targetPoint" />
          </mxGeometry>
        </mxCell>
        <mxCell id="n4vaRY5eCSg-2q49SCnd-27" value="&lt;div style=&quot;font-size: 14px;&quot;&gt;PostgresSQL&lt;/div&gt;&lt;div style=&quot;font-size: 14px;&quot;&gt;Database&lt;/div&gt;" style="rounded=0;whiteSpace=wrap;html=1;container=0;fontStyle=1;fontSize=14;fillColor=#dae8fc;strokeColor=#6c8ebf;" parent="1" vertex="1">
          <mxGeometry x="780" y="-330" width="190" height="60" as="geometry" />
        </mxCell>
        <mxCell id="n4vaRY5eCSg-2q49SCnd-30" value="File System&lt;br style=&quot;font-size: 14px;&quot;&gt;(Corpus Directory &amp;amp; Vector dump files)" style="rounded=0;whiteSpace=wrap;html=1;fontStyle=1;fontSize=14;fillColor=#e1d5e7;strokeColor=#9673a6;" parent="1" vertex="1">
          <mxGeometry x="668" y="-180" width="160" height="60" as="geometry" />
        </mxCell>
        <mxCell id="n4vaRY5eCSg-2q49SCnd-5" value="llama.cpp&lt;br style=&quot;font-size: 14px;&quot;&gt;(lib-llama)" style="rounded=0;whiteSpace=wrap;html=1;fontStyle=1;fontSize=14;fillColor=#fff2cc;strokeColor=#d6b656;" parent="1" vertex="1">
          <mxGeometry x="220" y="-181" width="190" height="60" as="geometry" />
        </mxCell>
        <mxCell id="n4vaRY5eCSg-2q49SCnd-11" value="" style="endArrow=none;html=1;endSize=12;startArrow=diamondThin;startSize=14;startFill=1;edgeStyle=orthogonalEdgeStyle;align=left;verticalAlign=bottom;rounded=0;exitX=0;exitY=0.5;exitDx=0;exitDy=0;entryX=0.5;entryY=0;entryDx=0;entryDy=0;endFill=0;fontStyle=1;fontSize=14;" parent="1" source="n4vaRY5eCSg-2q49SCnd-4" target="n4vaRY5eCSg-2q49SCnd-5" edge="1">
          <mxGeometry x="-1" y="3" relative="1" as="geometry">
            <mxPoint x="320" y="-51" as="sourcePoint" />
            <mxPoint x="480" y="-51" as="targetPoint" />
          </mxGeometry>
        </mxCell>
        <mxCell id="L_NuJ4gCWTDtWlx-L7YN-2" value="" style="group" vertex="1" connectable="0" parent="1">
          <mxGeometry x="220" y="-530" width="150" height="173" as="geometry" />
        </mxCell>
        <mxCell id="n4vaRY5eCSg-2q49SCnd-22" value="" style="rounded=0;whiteSpace=wrap;html=1;fontStyle=1;fontSize=14;container=0;" parent="L_NuJ4gCWTDtWlx-L7YN-2" vertex="1">
          <mxGeometry width="150" height="173" as="geometry" />
        </mxCell>
        <mxCell id="n4vaRY5eCSg-2q49SCnd-24" value="Legend" style="text;html=1;strokeColor=none;fillColor=none;align=center;verticalAlign=middle;whiteSpace=wrap;rounded=0;fontStyle=1;fontSize=14;container=0;" parent="L_NuJ4gCWTDtWlx-L7YN-2" vertex="1">
          <mxGeometry x="42" y="1" width="60" height="30" as="geometry" />
        </mxCell>
        <mxCell id="n4vaRY5eCSg-2q49SCnd-12" value="" style="endArrow=none;html=1;endSize=12;startArrow=diamondThin;startSize=14;startFill=1;edgeStyle=orthogonalEdgeStyle;align=left;verticalAlign=bottom;rounded=0;exitX=0.5;exitY=1;exitDx=0;exitDy=0;endFill=0;fontStyle=1;fontSize=14;" parent="L_NuJ4gCWTDtWlx-L7YN-2" edge="1">
          <mxGeometry x="-1" y="3" relative="1" as="geometry">
            <mxPoint x="67" y="52.5" as="sourcePoint" />
            <mxPoint x="12" y="53" as="targetPoint" />
          </mxGeometry>
        </mxCell>
        <mxCell id="n4vaRY5eCSg-2q49SCnd-13" value="is part of" style="text;html=1;strokeColor=none;fillColor=none;align=left;verticalAlign=middle;whiteSpace=wrap;rounded=0;fontStyle=1;fontSize=14;container=0;" parent="L_NuJ4gCWTDtWlx-L7YN-2" vertex="1">
          <mxGeometry x="72" y="36" width="60" height="30" as="geometry" />
        </mxCell>
        <mxCell id="n4vaRY5eCSg-2q49SCnd-20" value="" style="endArrow=none;html=1;endSize=12;startArrow=classic;startSize=14;startFill=1;edgeStyle=orthogonalEdgeStyle;align=left;verticalAlign=bottom;rounded=0;exitX=0.5;exitY=1;exitDx=0;exitDy=0;endFill=0;fontStyle=1;fontSize=14;" parent="L_NuJ4gCWTDtWlx-L7YN-2" edge="1">
          <mxGeometry x="-1" y="3" relative="1" as="geometry">
            <mxPoint x="67" y="111" as="sourcePoint" />
            <mxPoint x="12" y="111" as="targetPoint" />
          </mxGeometry>
        </mxCell>
        <mxCell id="n4vaRY5eCSg-2q49SCnd-21" value="direction of control flow" style="text;html=1;strokeColor=none;fillColor=none;align=left;verticalAlign=middle;whiteSpace=wrap;rounded=0;fontStyle=1;fontSize=14;container=0;" parent="L_NuJ4gCWTDtWlx-L7YN-2" vertex="1">
          <mxGeometry x="72" y="96" width="70" height="30" as="geometry" />
        </mxCell>
      </root>
    </mxGraphModel>
  </diagram>
</mxfile>
